# xmcd
#
# Track frame offsets: 
#        150
#        10585
#        23070
#        29630
#        40185
#        53562
#        58447
#        66900
#        72997
#        81295
#        87592
#        95537
#        100750
#        103235
#        109482
#        114732
#        120002
#        127462
#        136777
#        144435
#        146935
#        148135
#        148910
#        150112
#        153315
#        155827
#        160937
#        163465
#        169487
#
# Disc length: 2316 seconds
#
# Revision: 0
# Processed by: cddbd v1.5.2PL0 Copyright (c) Steve Scherf et al.
# Submitted via: ExactAudioCopy v0.99pb4
#
DISCID=b4090a1d
DTITLE=YAMAHA - Children4
DYEAR=1900
DGENRE=Classical
TTITLE0=太陽下
TTITLE1=活力OK
TTITLE2=吹笛子的老公公
TTITLE3=星星的搖籃曲
TTITLE4=鯨魚與海盜
TTITLE5=紅葉子
TTITLE6=落葉
TTITLE7=木偶之舞
TTITLE8=花之圓舞曲
TTITLE9=我是小茶壺
TTITLE10=吉普賽舞曲
TTITLE11=夜晚的舞會
TTITLE12=魔術師進行曲1
TTITLE13=魔術師進行曲2
TTITLE14=木匠啄木鳥
TTITLE15=小白兔捉迷藏
TTITLE16=魔笛
TTITLE17=獅子進行曲
TTITLE18=可憐的小貓
TTITLE19=小喇叭和大鼓1
TTITLE20=小喇叭和大鼓2
TTITLE21=小喇叭和大鼓3
TTITLE22=小喇叭和大鼓4
TTITLE23=小喇叭和大鼓5
TTITLE24=小喇叭和大鼓6
TTITLE25=幻想曲1
TTITLE26=幻想曲2
TTITLE27=幻想曲3
TTITLE28=幻想曲4
EXTD=
EXTT0=
EXTT1=
EXTT2=
EXTT3=
EXTT4=
EXTT5=
EXTT6=
EXTT7=
EXTT8=
EXTT9=
EXTT10=
EXTT11=
EXTT12=
EXTT13=
EXTT14=
EXTT15=
EXTT16=
EXTT17=
EXTT18=
EXTT19=
EXTT20=
EXTT21=
EXTT22=
EXTT23=
EXTT24=
EXTT25=
EXTT26=
EXTT27=
EXTT28=
PLAYORDER=
